<svg xmlns="http://www.w3.org/2000/svg" version="1.1" xmlns:xlink="http://www.w3.org/1999/xlink" xmlns:svgjs="http://svgjs.dev/svgjs" viewBox="0 0 800 800"><defs><filter id="uuunion-blur" x="-100%" y="-100%" width="400%" height="400%" color-interpolation-filters="sRGB">
        <feGaussianBlur in="SourceGraphic" stdDeviation="7.5 0" result="blur"></feGaussianBlur>
        <feDropShadow stdDeviation="12.307692307692308" in="blur" dx="10" dy="10" flood-color="hsl(114, 12%, 94%)" flood-opacity="0.25" x="0%" y="0%" width="100%" height="100%"></feDropShadow>
      </filter><filter id="uuunion-blur2" x="-100%" y="-100%" width="400%" height="400%" color-interpolation-filters="sRGB">
        <feGaussianBlur in="SourceGraphic" stdDeviation="7.5 0" result="blur"></feGaussianBlur>
        <feDropShadow stdDeviation="12.307692307692308" in="blur" dx="-10" dy="-10" flood-color="hsl(114, 12%, 94%)" flood-opacity="0.25" x="0%" y="0%" width="100%" height="100%"></feDropShadow>
      </filter><linearGradient gradientTransform="rotate(0, 0.5, 0.5)" x1="50%" y1="0%" x2="50%" y2="100%" id="uuunion-grad"><stop stop-color="hsl(115, 33%, 83%)" offset="10%"></stop><stop stop-color="hsl(114, 12%, 94%)" offset="90%"></stop></linearGradient><linearGradient gradientTransform="rotate(135, 0.5, 0.5)" x1="50%" y1="0%" x2="50%" y2="100%" id="uuunion-grad2"><stop stop-color="hsl(115, 33%, 83%)" offset="25%"></stop><stop stop-color="hsl(114, 12%, 94%)" offset="100%"></stop></linearGradient><linearGradient gradientTransform="rotate(333, 0.5, 0.5)" x1="50%" y1="0%" x2="50%" y2="100%" id="uuunion-grad3"><stop stop-color="hsl(115, 33%, 83%)" offset="0%"></stop><stop stop-color="hsl(114, 12%, 94%)" offset="75%"></stop></linearGradient></defs><path d="M-78.9 -86.2Q-64.29 -82.94 -49.69 -79.11 -35.08 -75.46 -20.47 -72.67 -5.86 -71.29 8.74 -71.57 23.35 -73.47 37.96 -76.61 52.57 -80.41 67.18 -84.12 81.79 -87.05 96.4 -88.62 111.01 -88.54 125.62 -86.83 140.23 -83.8 154.84 -80.05 169.45 -76.29 184.06 -73.24 198.67 -71.48 213.28 -71.35 227.89 -72.88 242.5 -75.77 257.11 -79.47 271.72 -83.27 286.33 -86.44 300.94 -88.38 315.55 -88.72 330.16 -87.38 344.77 -84.63 359.37 -80.99 373.98 -77.16 388.59 -73.87 403.2 -71.76 417.81 -71.22 432.42 -72.37 447.03 -74.97 461.64 -78.54 476.25 -82.38 490.86 -85.77 505.47 -88.05 520.08 -88.79 534.69 -87.85 549.3 -85.4 563.91 -81.91 578.52 -78.06 593.13 -74.58 607.74 -72.14 622.35 -71.2 636.96 -71.94 651.57 -74.23 666.18 -77.62 680.79 -81.47 695.4 -85.03 710.01 -87.63 724.62 -88.77 739.23 -88.23 753.84 -86.11 768.44 -82.82 783.05 -78.99 797.66 -75.35 812.27 -72.6 826.88 -71.27 841.49 -71.61 856.1 -73.55 856.32 -58.39 858.93 -43.22 863.66 -28.06 870.05 -12.9 877.44 2.26 885.08 17.42 892.22 32.59 898.12 47.75 902.19 62.92 904.02 78.08 903.42 93.25 900.45 108.41 895.42 123.58 888.84 138.74 881.36 153.91 873.74 169.07 866.75 184.24 861.1 199.4 857.36 214.57 855.91 229.73 856.88 244.89 860.2 260.06 865.51 275.22 872.28 290.39 879.84 305.55 887.41 320.72 894.23 335.88 899.61 351.05 903.01 366.21 904.09 381.38 902.74 396.54 899.08 411.71 893.5 426.87 886.56 442.04 878.95 457.2 871.45 472.37 864.81 487.53 859.71 502.69 856.65 517.86 855.95 533.02 857.68 548.19 861.66 563.35 867.5 578.52 874.6 593.68 882.24 608.85 889.65 624.01 896.09 639.18 900.91 654.34 903.61 669.51 903.93 684.67 901.83 699.84 897.52 715 891.45 730.16 884.22 745.33 876.56 760.49 869.25 775.66 863.02 790.82 858.51 805.99 856.17 821.15 856.23 836.32 858.7 851.48 863.31 866.65 869.61 881.81 876.96 896.98 862.01 902.1 847.06 902.99 832.11 899.48 817.16 892.23 802.21 882.65 787.26 872.55 772.31 863.88 757.36 858.3 742.41 856.87 727.46 859.87 712.51 866.72 697.56 876.12 682.61 886.26 667.66 895.2 652.71 901.22 637.76 903.19 622.8 900.71 607.85 894.26 592.9 885.09 577.95 874.93 563 865.75 548.05 859.29 533.1 856.8 518.15 858.75 503.2 864.77 488.25 873.7 473.3 883.84 458.35 893.24 443.4 900.11 428.45 903.12 413.5 901.7 398.55 896.13 383.6 887.47 368.65 877.37 353.7 867.78 338.75 860.53 323.8 857 308.85 857.88 293.89 862.99 278.94 871.36 263.99 881.38 249.04 891.14 234.09 898.76 219.14 902.79 204.19 902.45 189.24 897.81 174.29 889.76 159.34 879.84 144.39 869.95 129.44 861.98 114.49 857.46 99.54 857.26 84.59 861.41 69.64 869.12 54.69 878.91 39.74 888.91 24.79 897.2 9.84 902.2 -5.1 902.94 -20.05 899.3 -35.01 891.95 -49.96 882.32 -64.91 872.24 -79.86 863.64 -79.52 848.8 -79.23 833.96 -79.02 819.12 -78.91 804.28 -78.91 789.44 -79.01 774.6 -79.22 759.75 -79.5 744.91 -79.84 730.07 -80.19 715.23 -80.52 700.39 -80.8 685.55 -80.99 670.71 -81.09 655.86 -81.07 641.02 -80.95 626.18 -80.73 611.34 -80.44 596.5 -80.1 581.66 -79.75 566.82 -79.42 551.97 -79.16 537.13 -78.98 522.29 -78.9 507.45 -78.93 492.61 -79.07 477.77 -79.3 462.93 -79.6 448.08 -79.95 433.24 -80.29 418.4 -80.61 403.56 -80.87 388.72 -81.03 373.88 -81.09 359.04 -81.05 344.19 -80.89 329.35 -80.64 314.51 -80.33 299.67 -79.99 284.83 -79.64 269.99 -79.33 255.15 -79.09 240.3 -78.94 225.46 -78.9 210.62 -78.96 195.78 -79.13 180.94 -79.39 166.1 -79.71 151.26 -80.06 136.41 -80.4 121.57 -80.7 106.73 -80.93 91.89 -81.06 77.05 -81.09 62.21 -81.01 47.37 -80.82 32.52 -80.55 17.68 -80.23 2.84 -79.88 -11.99 -79.54 -26.83 -79.25 -41.67 -79.03 -56.51 -78.91 -71.36 -78.9 -86.2" fill="url(#uuunion-grad)"></path><path d="M-78.9 -86.2Q-78.91 -71.36 -79.03 -56.51 -79.25 -41.67 -79.54 -26.83 -79.88 -11.99 -80.23 2.84 -80.55 17.68 -80.82 32.52 -81.01 47.37 -81.09 62.21 -81.06 77.05 -80.93 91.89 -80.7 106.73 -80.4 121.57 -80.06 136.41 -79.71 151.26 -79.39 166.1 -79.13 180.94 -78.96 195.78 -78.9 210.62 -78.94 225.46 -79.09 240.3 -79.33 255.15 -79.64 269.99 -79.99 284.83 -80.33 299.67 -80.64 314.51 -80.89 329.35 -81.05 344.19 -81.09 359.04 -81.03 373.88 -80.87 388.72 -70.66 392.49 -60.45 396.91 -50.24 401.6 -40.03 406.14 -29.83 410.16 -19.62 413.31 -0.48 415.81 2.82 415.97 15.65 408.23 28.5 398.6 41.36 387.54 54.2 375.7 67.02 363.84 79.78 352.69 92.48 342.9 105.11 334.91 117.63 328.95 130.05 324.93 142.36 322.55 154.55 321.27 166.62 320.42 178.56 319.28 190.39 317.18 202.11 313.58 213.73 308.15 225.27 300.81 236.75 291.71 248.18 281.28 259.59 270.06 270.99 258.74 282.43 247.99 293.92 238.38 305.49 230.36 317.16 224.13 328.97 219.66 340.92 216.7 353.05 214.8 365.38 213.35 377.9 211.72 390.64 209.31 403.61 205.6 416.79 200.3 430.2 193.29 443.81 184.7 457.62 174.86 471.61 164.27 485.76 153.5 500.03 143.17 514.41 133.81 528.85 125.8 543.32 119.36 557.78 114.5 572.19 111 586.51 108.48 600.7 106.43 614.72 104.29 628.54 101.52 642.11 97.66 655.42 92.42 668.43 85.69 681.13 77.56 693.49 68.29 705.51 58.31 717.19 48.12 728.52 38.25 739.52 29.16 750.21 21.23 760.61 14.65 770.75 9.43 780.67 5.43 790.4 2.32 800 -0.32 791.99 -17.81 785.08 -35.3 780.22 -52.79 778.07 -70.29 778.92 -87.78 782.66 -105.27 788.77 -122.76 796.43 -140.25 781.58 -143.58 766.74 -146.23 751.9 -147.7 737.06 -147.71 722.21 -146.27 707.37 -143.63 692.53 -140.31 677.69 -136.93 662.84 -134.13 648 -132.44 633.16 -132.18 618.31 -133.39 603.47 -135.86 588.63 -139.11 573.79 -142.52 558.94 -145.46 544.1 -147.37 529.26 -147.88 514.41 -146.9 499.57 -144.61 484.73 -141.45 469.89 -138.02 455.04 -134.96 440.2 -132.85 425.36 -132.1 410.51 -132.83 395.67 -134.93 380.83 -137.98 365.99 -141.41 351.14 -144.58 336.3 -146.88 321.46 -147.87 306.62 -147.38 291.77 -145.49 276.93 -142.56 262.09 -139.15 247.24 -135.89 232.4 -133.41 217.56 -132.18 202.72 -132.43 187.87 -134.1 173.03 -136.89 158.19 -140.27 143.34 -143.6 128.5 -146.24 113.66 -147.7 98.82 -147.71 83.97 -146.25 69.13 -143.62 54.29 -140.29 39.44 -136.91 24.6 -134.12 9.76 -132.43 -5.07 -132.18 -19.92 -133.4 -34.76 -135.87 -49.6 -139.13 -64.44 -142.54 -79.29 -145.47 -94.13 -147.37 -108.97 -147.87 -123.82 -146.89 -133.06 -132.36 -115.51 -117.97 -106.25 -110.95 -97.07 -103.31 -87.96 -95.05 -78.9 -86.2" fill="url(#uuunion-grad2)" filter="url(#uuunion-blur)"></path><path d="M817.42 399.47Q827.63 404.13 837.84 408.44 848.04 412.01 858.25 414.56 868.46 415.85 878.67 415.79 891.19 420.62 886.56 442.04 878.95 457.2 871.45 472.37 864.81 487.53 859.71 502.69 856.65 517.86 855.95 533.02 857.68 548.19 861.66 563.35 867.5 578.52 874.6 593.68 882.24 608.85 889.65 624.01 896.09 639.18 900.91 654.34 903.61 669.51 903.93 684.67 901.83 699.84 897.52 715 891.45 730.16 884.22 745.33 876.56 760.49 869.25 775.66 863.02 790.82 858.51 805.99 856.17 821.15 856.23 836.32 858.7 851.48 863.31 866.65 869.61 881.81 876.96 896.98 863.24 901.83 849.52 903.15 835.8 900.73 822.08 894.96 808.36 886.76 794.64 877.48 780.92 868.59 767.2 861.56 753.48 857.5 739.76 857.08 726.04 860.37 712.32 866.83 698.6 875.42 684.88 884.74 671.16 893.31 657.44 899.71 643.72 902.93 630 902.45 616.28 898.33 602.56 891.24 588.84 882.34 575.12 873.06 561.4 864.9 547.68 859.18 533.96 856.83 520.24 858.22 506.52 863.13 492.8 870.77 479.08 879.9 465.36 889.05 451.64 896.73 437.92 901.71 424.2 903.17 410.48 900.89 396.76 895.23 383.04 887.1 369.32 877.83 355.6 868.91 341.88 861.78 328.16 857.59 314.44 857.03 300.72 860.18 287 866.54 273.28 875.07 259.56 884.4 245.84 893.01 232.12 899.52 218.4 902.88 204.67 902.53 190.95 898.54 177.23 891.55 163.51 882.7 149.79 873.4 136.07 865.17 122.35 859.34 108.63 856.85 94.91 858.1 81.19 862.89 67.47 870.45 53.75 879.55 40.03 888.72 26.31 896.48 5.63 897.31 -1.51 882.89 -1.67 872.74 -1.8 862.59 -1.9 852.44 -1.96 842.29 -1.71 827.06 -0.96 822 11.27 814.19 23.56 803.67 35.92 791.04 48.37 777.16 60.9 763.06 73.53 749.78 86.26 738.25 99.1 729.17 112.04 722.88 125.07 719.37 138.18 718.25 151.37 718.81 164.62 720.14 177.91 721.21 191.22 721.05 204.54 718.87 217.84 714.14 231.09 706.68 244.27 696.68 257.37 684.66 270.35 671.41 283.21 657.87 295.91 645.01 308.45 633.71 320.82 624.62 333 618.11 345 614.18 356.8 612.49 368.42 612.43 379.86 613.14 391.14 613.71 402.28 613.21 413.28 610.9 424.19 606.27 435.02 599.12 445.81 589.61 456.6 578.18 467.41 565.55 478.28 552.58 489.25 540.17 500.35 529.12 511.63 520.07 523.09 513.37 534.79 509.05 546.74 506.83 558.97 506.15 571.48 506.26 584.3 506.3 597.43 505.43 610.86 502.95 624.59 498.38 638.61 491.51 652.9 482.45 667.44 471.6 682.18 459.59 697.11 447.2 712.17 435.25 727.32 424.49 742.52 415.51 757.71 408.66 772.85 403.98 787.88 401.25 810.09 399.72 817.42 399.47" fill="url(#uuunion-grad3)" filter="url(#uuunion-blur2)"></path></svg>